<?xml version="1.0" encoding="UTF-8"?>
<!DOCTYPE svg PUBLIC "-//W3C//DTD SVG 1.1//EN" "http://www.w3.org/Graphics/SVG/1.1/DTD/svg11.dtd">
<svg xmlns="http://www.w3.org/2000/svg" version="1.1" width="3240px" height="3240px" style="shape-rendering:geometricPrecision; text-rendering:geometricPrecision; image-rendering:optimizeQuality; fill-rule:evenodd; clip-rule:evenodd" xmlns:xlink="http://www.w3.org/1999/xlink">
<g><path style="opacity:0.998" fill="#fefefe" d="M 777.5,538.5 C 789.703,540.18 801.036,544.347 811.5,551C 842.082,568.912 869.749,590.579 894.5,616C 945.476,658.974 991.643,706.474 1033,758.5C 1057.7,783.595 1081.7,809.261 1105,835.5C 1119.1,852.263 1132.43,869.596 1145,887.5C 1152.35,895.583 1159.69,903.583 1167,911.5C 1191.67,946.167 1216.33,980.833 1241,1015.5C 1268.45,1056.71 1293.11,1099.71 1315,1144.5C 1326.98,1173.47 1340.32,1201.8 1355,1229.5C 1362.41,1248.74 1370.41,1267.74 1379,1286.5C 1390.59,1319.61 1401.59,1352.95 1412,1386.5C 1424.99,1420.8 1440.65,1453.8 1459,1485.5C 1462.29,1490.45 1465.95,1495.12 1470,1499.5C 1511.28,1487.55 1553.45,1480.72 1596.5,1479C 1625.83,1478.33 1655.17,1478.33 1684.5,1479C 1713.02,1480.64 1741.02,1484.98 1768.5,1492C 1772.39,1487.11 1775.89,1481.94 1779,1476.5C 1794.8,1448.22 1808.47,1418.89 1820,1388.5C 1829.34,1359.82 1838.67,1331.16 1848,1302.5C 1863.88,1260.41 1882.21,1219.41 1903,1179.5C 1916.13,1147.58 1931.13,1116.58 1948,1086.5C 1965.08,1058.67 1982.42,1031 2000,1003.5C 2026.11,968.054 2051.44,932.054 2076,895.5C 2094.42,870.986 2113.09,846.653 2132,822.5C 2172.42,776.74 2214.26,732.24 2257.5,689C 2264.87,681.96 2272.54,675.294 2280.5,669C 2287.83,661.667 2295.17,654.333 2302.5,647C 2324.87,626.96 2347.54,607.293 2370.5,588C 2386.94,574.893 2403.94,562.559 2421.5,551C 2431.43,544.868 2442.09,540.702 2453.5,538.5C 2493.66,537.82 2515.82,557.487 2520,597.5C 2520.18,606.411 2520.68,615.245 2521.5,624C 2519.34,641.448 2517.17,658.948 2515,676.5C 2509.13,708.999 2502.46,741.332 2495,773.5C 2477.02,883.422 2453.35,992.089 2424,1099.5C 2406.67,1150.82 2389.34,1202.16 2372,1253.5C 2359.61,1283.62 2344.61,1312.28 2327,1339.5C 2267.36,1433.19 2197.86,1519.35 2118.5,1598C 2103.83,1611 2089.17,1624 2074.5,1637C 2104.72,1687.61 2130.55,1740.44 2152,1795.5C 2158.96,1816.42 2165.63,1837.42 2172,1858.5C 2178.9,1891.33 2184.9,1924.33 2190,1957.5C 2195.65,2022.64 2190.65,2086.97 2175,2150.5C 2167.79,2185.35 2157.79,2219.35 2145,2252.5C 2118.09,2303 2085.76,2349.67 2048,2392.5C 2032.42,2413.98 2018.09,2436.32 2005,2459.5C 1983.07,2500.42 1960.73,2541.09 1938,2581.5C 1914.93,2622.57 1883.1,2655.07 1842.5,2679C 1791.59,2699.38 1739.26,2704.38 1685.5,2694C 1672.97,2689.6 1660.3,2685.6 1647.5,2682C 1632.83,2680.02 1618.16,2680.02 1603.5,2682C 1584.78,2688.35 1565.78,2693.68 1546.5,2698C 1502.4,2702.45 1459.4,2697.45 1417.5,2683C 1403.38,2677.11 1390.38,2669.44 1378.5,2660C 1350.34,2636.81 1327.51,2609.31 1310,2577.5C 1281.43,2524.68 1252.09,2472.35 1222,2420.5C 1215.06,2409.89 1207.72,2399.56 1200,2389.5C 1162.9,2347.33 1131.24,2301.33 1105,2251.5C 1091.72,2216.73 1081.39,2181.06 1074,2144.5C 1059.58,2083.89 1054.91,2022.55 1060,1960.5C 1067.89,1899.71 1081.89,1840.38 1102,1782.5C 1122.31,1736.04 1145.15,1690.88 1170.5,1647C 1122.43,1607.27 1077.93,1563.77 1037,1516.5C 979.456,1448.95 928.123,1376.95 883,1300.5C 872.57,1280.31 863.237,1259.64 855,1238.5C 824.282,1147.68 797.615,1055.68 775,962.5C 759.718,891.423 745.718,820.09 733,748.5C 724.093,713.965 717.76,678.965 714,643.5C 711.172,621.622 712.172,599.956 717,578.5C 721.401,562.767 730.901,551.267 745.5,544C 756.162,541.34 766.828,539.507 777.5,538.5 Z"/></g>
<g><path style="opacity:1" fill="#020202" d="M 1726.5,2454.5 C 1727.53,2454.9 1727.69,2455.56 1727,2456.5C 1692.27,2515.57 1657.93,2574.91 1624,2634.5C 1589.42,2575.31 1555.42,2515.98 1522,2456.5C 1566.68,2488.77 1615.85,2497.93 1669.5,2484C 1688.84,2477.99 1706.84,2469.33 1723.5,2458C 1724.71,2456.96 1725.71,2455.79 1726.5,2454.5 Z"/></g>
</svg>
